Patient4_TMGait_0pt5_01_right_06_EMG.mot
version=1
nRows=13
nColumns=33
inDegrees=no
endheader
time	1LAddLong	2LGlutMax	3LGlutMed	4LIliopsoas	5LSemiMemb	6LBicFemLong	7LRecFem	8LVastMed	9LVastLat	10LGasMed	11LTibAnt	12lTibPost	13LPeroneusLong	14LSol	15LExtDigLong	16LFlexDigLong	17RAddLong	18RGlutMax	19RGlutMed	20RIliopsoas	21RSemiMemb	22RBicFemLong	23RRecFem	24RVastMed	25RVastLat	26RGasMed	27RTibAnt	28RTibPost	29RPeroneusLong	30RSol	31RExtDigLong	32RFlexDigLong
8.77	-0.011597	-0.031586	0.075226	-0.001526	0.022736	-0.003662	-0.046234	0.018616	0.019531	0.70618	-0.014801	0.16327	0.1506	0.41885	0.013428	-0.002136	0.012665	-0.14114	-0.17502	0.01236	-0.007019	0.007782	0.014038	-0.089417	0.016785	-0.006866	-0.061798	-0.002441	-0.16556	0.057831	-0.002136	-0.015259
8.771	0.051575	0.013885	0.08667	-0.00473	0.13443	0.008392	-0.042267	0.015411	0.052185	-0.59326	-0.019989	-0.40207	0.10635	0.50461	-0.028381	-1.2694	0.018463	-0.068665	-0.26779	0.15274	-0.010681	-0.032196	0.005951	-0.082703	0.011292	0.003662	-0.26459	-0.008087	-0.3093	0.005188	-0.002441	-0.006104
8.772	0.010376	0.016022	0.072784	-0.013123	0.10986	0.051727	-0.001984	0.010986	-0.005493	-0.71137	-0.007477	-0.063782	0.020142	0.504	-0.13626	-0.32928	0.012054	-0.054016	-0.34866	0.18814	0.005798	-0.006561	0.000153	-0.062103	0.005646	0.005035	0.068054	-0.003052	-0.31174	-0.04364	0.001526	-0.014954
8.773	0.009613	0.016327	0.056915	-0.009918	0.063477	0.019073	0.001373	0.006409	-0.093231	-0.4332	0.008545	-0.010986	-0.00885	0.14481	-0.1651	0.69687	0.027924	-0.029755	-0.061646	0.14877	-0.06073	0.001373	0.006104	-0.10346	0.013123	0.009766	0.46967	-0.008545	-0.1889	-0.10086	0.00061	-0.014191
8.774	0.008087	-0.006561	0.055237	-0.009766	0.019989	0.013428	0.028229	-0.004883	-0.10788	-0.26321	0.003815	-0.16327	0.077515	0.37964	-0.12619	-0.089417	0.014038	-0.054779	0.46555	-0.074768	-0.13855	0.002899	0.041962	-0.121	-0.000153	0.009766	-0.2446	-0.005646	-0.15533	-0.06012	0.002441	-0.022888
8.775	0.001831	0.024109	0.001373	0.015564	0.000153	-0.037384	-0.00412	-0.003662	-0.09201	-0.063477	0.006256	-0.030975	0.077972	0.28397	-0.13016	0.16892	-0.009918	-0.044098	0.45075	-0.026093	-0.1236	0.053864	-0.00473	-0.075378	0.019836	-0.007324	-0.70969	-0.004425	-0.06546	-0.084229	-0.000916	-0.025024
8.776	0.00473	-0.020599	-0.024261	0.008087	-0.015564	-0.046997	-0.055847	0.000458	-0.074768	0.093842	0.017395	0.075989	-0.010834	-0.047302	-0.11124	0.32303	-0.042114	-0.076904	0.085602	0.066071	-0.16037	0.062866	-0.028534	-0.058899	0.031738	-0.010834	-0.25421	-0.007324	-0.091248	-0.099945	0.001984	-0.037079
8.777	0.000458	-0.07019	0.060425	0.015717	-0.018463	-0.091095	-0.077209	0.007935	-0.05249	0.091095	0.016327	0.18326	-0.020599	-0.18723	-0.047607	-0.067444	-0.051575	-0.094299	-0.10605	0.056915	0.071869	0.085754	-0.048828	-0.053864	0.027618	-0.01358	0.095062	-0.01236	-0.14908	-0.016937	0.00061	-0.043182
8.778	0.015717	-0.061493	-0.020294	0.010529	0.037231	-0.10941	-0.06012	-0.001678	-0.012207	0.094299	0.012054	-0.15518	0.028839	-0.55603	-0.001068	-0.16312	-0.046539	-0.08606	-0.31708	0.003052	0.28351	0.021057	-0.030823	-0.020599	0.027924	-0.014648	0.066376	-0.006256	-0.33798	-0.002899	0	-0.046692
8.779	0.001373	-0.076447	-0.029602	-0.002289	0.034332	-0.10269	-0.041351	0.002594	-0.005646	0.30304	0.006409	0.014343	-0.012817	-0.55054	0.054016	0.061798	-0.017395	-0.068512	-0.22934	-0.036011	0.20279	0.036621	-0.014496	-0.029144	0.013123	-0.013733	-0.32913	-0.008698	-0.38681	-0.054932	-0.001068	-0.046997
8.78	0.009308	-0.08606	0.006714	-0.007324	0.002747	-0.12039	-0.024261	0.002899	-0.012054	0.46112	0.001068	-0.00946	-0.005341	-0.64926	0.058594	-0.29083	0.023193	-0.089569	-0.24307	0.04837	0.083923	-0.06012	0.023346	-0.12497	0.010834	-0.00946	-0.56122	-0.00351	-0.037231	-0.16815	-0.003052	-0.049438
8.781	0.003967	-0.10727	0.099792	-0.004272	-0.000916	0.018463	0.016632	0.006866	-0.010681	0.28763	-0.004425	-0.010223	-0.019989	-0.71365	0.067139	-0.18997	0.035706	-0.092773	-0.2623	0.097351	0.076294	-0.14755	0.033112	-0.12253	0.001831	0.002136	-0.15259	-0.00473	0.47577	-0.2446	-0.001526	-0.067902
8.782	0.008087	-0.11093	0.168	-0.005341	0.00061	0.023041	0.06073	0.009003	-0.021667	-0.016479	0.000763	-0.018768	0.016022	-0.41809	0.070496	0.029297	0.029297	-0.083923	-0.16815	0.052795	0.098572	-0.14435	0.017395	-0.11108	0.004578	0.005188	0.20584	-0.005188	0.49515	-0.17883	0.001526	-0.074463
